<mxfile host="Electron" agent="Mozilla/5.0 (Windows NT 10.0; Win64; x64) AppleWebKit/537.36 (KHTML, like Gecko) draw.io/26.2.2 Chrome/134.0.6998.178 Electron/35.1.2 Safari/537.36" version="26.2.2">
  <diagram name="Page-1" id="RHPhJxCZZjcTVryyRxdq">
    <mxGraphModel dx="2417" dy="781" grid="1" gridSize="10" guides="1" tooltips="1" connect="1" arrows="1" fold="1" page="1" pageScale="1" pageWidth="827" pageHeight="1169" math="0" shadow="0">
      <root>
        <mxCell id="0" />
        <mxCell id="1" parent="0" />
        <mxCell id="dzJao00pFgIOvPmKJzuv-9" style="edgeStyle=orthogonalEdgeStyle;rounded=0;orthogonalLoop=1;jettySize=auto;html=1;exitX=0.25;exitY=0;exitDx=0;exitDy=0;entryX=0.5;entryY=1;entryDx=0;entryDy=0;" edge="1" parent="1" source="dzJao00pFgIOvPmKJzuv-1" target="dzJao00pFgIOvPmKJzuv-3">
          <mxGeometry relative="1" as="geometry" />
        </mxCell>
        <mxCell id="dzJao00pFgIOvPmKJzuv-10" style="edgeStyle=orthogonalEdgeStyle;rounded=0;orthogonalLoop=1;jettySize=auto;html=1;exitX=0.75;exitY=0;exitDx=0;exitDy=0;entryX=0.5;entryY=1;entryDx=0;entryDy=0;" edge="1" parent="1" source="dzJao00pFgIOvPmKJzuv-1" target="dzJao00pFgIOvPmKJzuv-4">
          <mxGeometry relative="1" as="geometry" />
        </mxCell>
        <mxCell id="dzJao00pFgIOvPmKJzuv-11" style="edgeStyle=orthogonalEdgeStyle;rounded=0;orthogonalLoop=1;jettySize=auto;html=1;exitX=1;exitY=0;exitDx=0;exitDy=0;entryX=0.5;entryY=1;entryDx=0;entryDy=0;" edge="1" parent="1" source="dzJao00pFgIOvPmKJzuv-1" target="dzJao00pFgIOvPmKJzuv-7">
          <mxGeometry relative="1" as="geometry">
            <Array as="points">
              <mxPoint x="144" y="143.5" />
              <mxPoint x="229" y="143.5" />
            </Array>
          </mxGeometry>
        </mxCell>
        <mxCell id="dzJao00pFgIOvPmKJzuv-12" style="edgeStyle=orthogonalEdgeStyle;rounded=0;orthogonalLoop=1;jettySize=auto;html=1;exitX=0;exitY=0.5;exitDx=0;exitDy=0;entryX=1;entryY=0.5;entryDx=0;entryDy=0;" edge="1" parent="1" source="dzJao00pFgIOvPmKJzuv-1" target="dzJao00pFgIOvPmKJzuv-5">
          <mxGeometry relative="1" as="geometry">
            <Array as="points">
              <mxPoint y="168.5" />
            </Array>
          </mxGeometry>
        </mxCell>
        <mxCell id="dzJao00pFgIOvPmKJzuv-13" style="edgeStyle=orthogonalEdgeStyle;rounded=0;orthogonalLoop=1;jettySize=auto;html=1;exitX=0;exitY=1;exitDx=0;exitDy=0;entryX=1;entryY=0.5;entryDx=0;entryDy=0;" edge="1" parent="1" source="dzJao00pFgIOvPmKJzuv-1" target="dzJao00pFgIOvPmKJzuv-6">
          <mxGeometry relative="1" as="geometry">
            <Array as="points">
              <mxPoint x="44" y="198.5" />
            </Array>
          </mxGeometry>
        </mxCell>
        <mxCell id="dzJao00pFgIOvPmKJzuv-1" value="&lt;span style=&quot;font-weight: 700; font-kerning: normal;&quot; class=&quot;OYPEnA font-feature-liga-off font-feature-clig-off font-feature-calt-off text-decoration-none text-strikethrough-none&quot;&gt;&lt;font style=&quot;color: rgb(255, 255, 255);&quot;&gt;Patient&amp;nbsp;&lt;/font&gt;&lt;/span&gt;" style="rounded=1;arcSize=10;whiteSpace=wrap;html=1;align=center;" vertex="1" parent="1">
          <mxGeometry x="44" y="148.5" width="100" height="40" as="geometry" />
        </mxCell>
        <mxCell id="dzJao00pFgIOvPmKJzuv-2" value="&lt;span style=&quot;font-kerning: normal;&quot; class=&quot;OYPEnA font-feature-liga-off font-feature-clig-off font-feature-calt-off text-decoration-none text-strikethrough-none&quot;&gt;&lt;font style=&quot;color: rgb(255, 255, 255);&quot;&gt;PatientID&amp;nbsp;&lt;/font&gt;&lt;/span&gt;" style="ellipse;whiteSpace=wrap;html=1;align=center;fontStyle=4;" vertex="1" parent="1">
          <mxGeometry x="-70" y="88.5" width="80" height="30" as="geometry" />
        </mxCell>
        <mxCell id="dzJao00pFgIOvPmKJzuv-3" value="Name" style="ellipse;whiteSpace=wrap;html=1;align=center;" vertex="1" parent="1">
          <mxGeometry x="22" y="96.5" width="60" height="20" as="geometry" />
        </mxCell>
        <mxCell id="dzJao00pFgIOvPmKJzuv-4" value="Age" style="ellipse;whiteSpace=wrap;html=1;align=center;" vertex="1" parent="1">
          <mxGeometry x="94" y="98.5" width="60" height="20" as="geometry" />
        </mxCell>
        <mxCell id="dzJao00pFgIOvPmKJzuv-5" value="Gender" style="ellipse;whiteSpace=wrap;html=1;align=center;" vertex="1" parent="1">
          <mxGeometry x="-70" y="148.5" width="70" height="20" as="geometry" />
        </mxCell>
        <mxCell id="dzJao00pFgIOvPmKJzuv-6" value="Blood Type" style="ellipse;whiteSpace=wrap;html=1;align=center;" vertex="1" parent="1">
          <mxGeometry x="-70" y="183.5" width="70" height="30" as="geometry" />
        </mxCell>
        <mxCell id="dzJao00pFgIOvPmKJzuv-7" value="&lt;span style=&quot;font-kerning: normal;&quot; class=&quot;OYPEnA font-feature-liga-off font-feature-clig-off font-feature-calt-off text-decoration-none text-strikethrough-none&quot;&gt;&lt;font style=&quot;color: rgb(255, 255, 255);&quot;&gt;Insurance Providor&amp;nbsp;&lt;/font&gt;&lt;/span&gt;" style="ellipse;whiteSpace=wrap;html=1;align=center;" vertex="1" parent="1">
          <mxGeometry x="184" y="93.5" width="90" height="30" as="geometry" />
        </mxCell>
        <mxCell id="dzJao00pFgIOvPmKJzuv-8" style="edgeStyle=orthogonalEdgeStyle;rounded=0;orthogonalLoop=1;jettySize=auto;html=1;exitX=0;exitY=0;exitDx=0;exitDy=0;entryX=0.388;entryY=1.033;entryDx=0;entryDy=0;entryPerimeter=0;" edge="1" parent="1" source="dzJao00pFgIOvPmKJzuv-1" target="dzJao00pFgIOvPmKJzuv-2">
          <mxGeometry relative="1" as="geometry">
            <Array as="points">
              <mxPoint x="44" y="138.5" />
              <mxPoint x="-39" y="138.5" />
            </Array>
          </mxGeometry>
        </mxCell>
        <mxCell id="dzJao00pFgIOvPmKJzuv-17" style="edgeStyle=orthogonalEdgeStyle;rounded=0;orthogonalLoop=1;jettySize=auto;html=1;exitX=0.5;exitY=0;exitDx=0;exitDy=0;entryX=0;entryY=0.5;entryDx=0;entryDy=0;" edge="1" parent="1" source="dzJao00pFgIOvPmKJzuv-14">
          <mxGeometry relative="1" as="geometry">
            <mxPoint x="1000" y="73" as="targetPoint" />
          </mxGeometry>
        </mxCell>
        <mxCell id="dzJao00pFgIOvPmKJzuv-18" style="edgeStyle=orthogonalEdgeStyle;rounded=0;orthogonalLoop=1;jettySize=auto;html=1;exitX=0;exitY=0.5;exitDx=0;exitDy=0;entryX=0.5;entryY=1;entryDx=0;entryDy=0;" edge="1" parent="1" source="dzJao00pFgIOvPmKJzuv-14" target="dzJao00pFgIOvPmKJzuv-16">
          <mxGeometry relative="1" as="geometry">
            <Array as="points">
              <mxPoint x="850" y="135" />
            </Array>
          </mxGeometry>
        </mxCell>
        <mxCell id="dzJao00pFgIOvPmKJzuv-14" value="Hospital" style="rounded=1;arcSize=10;whiteSpace=wrap;html=1;align=center;" vertex="1" parent="1">
          <mxGeometry x="880" y="115" width="100" height="40" as="geometry" />
        </mxCell>
        <mxCell id="dzJao00pFgIOvPmKJzuv-15" value="Hos.Name" style="ellipse;whiteSpace=wrap;html=1;align=center;" vertex="1" parent="1">
          <mxGeometry x="980" y="40" width="90" height="30" as="geometry" />
        </mxCell>
        <mxCell id="dzJao00pFgIOvPmKJzuv-16" value="HospitalID" style="ellipse;whiteSpace=wrap;html=1;align=center;fontStyle=4;" vertex="1" parent="1">
          <mxGeometry x="810" y="60" width="80" height="30" as="geometry" />
        </mxCell>
        <mxCell id="dzJao00pFgIOvPmKJzuv-27" style="edgeStyle=orthogonalEdgeStyle;rounded=0;orthogonalLoop=1;jettySize=auto;html=1;exitX=0.25;exitY=0;exitDx=0;exitDy=0;entryX=0.5;entryY=1;entryDx=0;entryDy=0;" edge="1" parent="1" source="dzJao00pFgIOvPmKJzuv-19" target="dzJao00pFgIOvPmKJzuv-20">
          <mxGeometry relative="1" as="geometry">
            <Array as="points">
              <mxPoint x="-1" y="346" />
            </Array>
          </mxGeometry>
        </mxCell>
        <mxCell id="dzJao00pFgIOvPmKJzuv-28" style="edgeStyle=orthogonalEdgeStyle;rounded=0;orthogonalLoop=1;jettySize=auto;html=1;exitX=0.25;exitY=1;exitDx=0;exitDy=0;entryX=0.5;entryY=1;entryDx=0;entryDy=0;" edge="1" parent="1" source="dzJao00pFgIOvPmKJzuv-19" target="dzJao00pFgIOvPmKJzuv-21">
          <mxGeometry relative="1" as="geometry" />
        </mxCell>
        <mxCell id="dzJao00pFgIOvPmKJzuv-19" value="Doctor" style="rounded=1;arcSize=10;whiteSpace=wrap;html=1;align=center;" vertex="1" parent="1">
          <mxGeometry x="64" y="346" width="100" height="40" as="geometry" />
        </mxCell>
        <mxCell id="dzJao00pFgIOvPmKJzuv-20" value="Doctor-ID" style="ellipse;whiteSpace=wrap;html=1;align=center;fontStyle=4;" vertex="1" parent="1">
          <mxGeometry x="-46" y="296" width="90" height="30" as="geometry" />
        </mxCell>
        <mxCell id="dzJao00pFgIOvPmKJzuv-21" value="Doc.Name" style="ellipse;whiteSpace=wrap;html=1;align=center;" vertex="1" parent="1">
          <mxGeometry x="-46" y="356" width="80" height="30" as="geometry" />
        </mxCell>
        <mxCell id="dzJao00pFgIOvPmKJzuv-22" value="" style="shape=table;startSize=0;container=1;collapsible=1;childLayout=tableLayout;fixedRows=1;rowLines=0;fontStyle=0;align=center;resizeLast=1;strokeColor=none;fillColor=none;collapsible=0;" vertex="1" parent="1">
          <mxGeometry x="64" y="286" width="110" height="30" as="geometry" />
        </mxCell>
        <mxCell id="dzJao00pFgIOvPmKJzuv-23" value="" style="shape=tableRow;horizontal=0;startSize=0;swimlaneHead=0;swimlaneBody=0;fillColor=none;collapsible=0;dropTarget=0;points=[[0,0.5],[1,0.5]];portConstraint=eastwest;top=0;left=0;right=0;bottom=0;" vertex="1" parent="dzJao00pFgIOvPmKJzuv-22">
          <mxGeometry width="110" height="30" as="geometry" />
        </mxCell>
        <mxCell id="dzJao00pFgIOvPmKJzuv-24" value="FK" style="shape=partialRectangle;connectable=0;fillColor=none;top=0;left=0;bottom=0;right=0;fontStyle=0;overflow=hidden;whiteSpace=wrap;html=1;" vertex="1" parent="dzJao00pFgIOvPmKJzuv-23">
          <mxGeometry width="30" height="30" as="geometry">
            <mxRectangle width="30" height="30" as="alternateBounds" />
          </mxGeometry>
        </mxCell>
        <mxCell id="dzJao00pFgIOvPmKJzuv-25" value="HospitalID" style="shape=partialRectangle;connectable=0;fillColor=none;top=0;left=0;bottom=0;right=0;align=left;spacingLeft=6;fontStyle=0;overflow=hidden;whiteSpace=wrap;html=1;" vertex="1" parent="dzJao00pFgIOvPmKJzuv-23">
          <mxGeometry x="30" width="80" height="30" as="geometry">
            <mxRectangle width="80" height="30" as="alternateBounds" />
          </mxGeometry>
        </mxCell>
        <mxCell id="dzJao00pFgIOvPmKJzuv-26" style="edgeStyle=orthogonalEdgeStyle;rounded=0;orthogonalLoop=1;jettySize=auto;html=1;exitX=0.5;exitY=0;exitDx=0;exitDy=0;entryX=0.473;entryY=0.9;entryDx=0;entryDy=0;entryPerimeter=0;" edge="1" parent="1" source="dzJao00pFgIOvPmKJzuv-19" target="dzJao00pFgIOvPmKJzuv-23">
          <mxGeometry relative="1" as="geometry" />
        </mxCell>
        <mxCell id="dzJao00pFgIOvPmKJzuv-56" style="edgeStyle=orthogonalEdgeStyle;rounded=0;orthogonalLoop=1;jettySize=auto;html=1;exitX=0.25;exitY=0;exitDx=0;exitDy=0;entryX=0.5;entryY=1;entryDx=0;entryDy=0;" edge="1" parent="1" source="dzJao00pFgIOvPmKJzuv-29" target="dzJao00pFgIOvPmKJzuv-30">
          <mxGeometry relative="1" as="geometry">
            <Array as="points">
              <mxPoint x="985" y="338" />
              <mxPoint x="1060" y="338" />
            </Array>
          </mxGeometry>
        </mxCell>
        <mxCell id="dzJao00pFgIOvPmKJzuv-57" style="edgeStyle=orthogonalEdgeStyle;rounded=0;orthogonalLoop=1;jettySize=auto;html=1;entryX=0;entryY=1;entryDx=0;entryDy=0;exitX=0.5;exitY=0;exitDx=0;exitDy=0;" edge="1" parent="1" source="dzJao00pFgIOvPmKJzuv-29" target="dzJao00pFgIOvPmKJzuv-37">
          <mxGeometry relative="1" as="geometry">
            <mxPoint x="1010" y="378" as="sourcePoint" />
            <Array as="points">
              <mxPoint x="1010" y="358" />
              <mxPoint x="1090" y="358" />
              <mxPoint x="1090" y="318" />
              <mxPoint x="1145" y="318" />
            </Array>
          </mxGeometry>
        </mxCell>
        <mxCell id="dzJao00pFgIOvPmKJzuv-58" style="edgeStyle=orthogonalEdgeStyle;rounded=0;orthogonalLoop=1;jettySize=auto;html=1;exitX=1;exitY=0;exitDx=0;exitDy=0;entryX=0;entryY=0.5;entryDx=0;entryDy=0;" edge="1" parent="1" source="dzJao00pFgIOvPmKJzuv-29" target="dzJao00pFgIOvPmKJzuv-32">
          <mxGeometry relative="1" as="geometry">
            <Array as="points">
              <mxPoint x="1060" y="368" />
              <mxPoint x="1170" y="368" />
            </Array>
          </mxGeometry>
        </mxCell>
        <mxCell id="dzJao00pFgIOvPmKJzuv-59" style="edgeStyle=orthogonalEdgeStyle;rounded=0;orthogonalLoop=1;jettySize=auto;html=1;exitX=1;exitY=0.25;exitDx=0;exitDy=0;entryX=0;entryY=0.5;entryDx=0;entryDy=0;" edge="1" parent="1" source="dzJao00pFgIOvPmKJzuv-29" target="dzJao00pFgIOvPmKJzuv-33">
          <mxGeometry relative="1" as="geometry" />
        </mxCell>
        <mxCell id="dzJao00pFgIOvPmKJzuv-60" style="edgeStyle=orthogonalEdgeStyle;rounded=0;orthogonalLoop=1;jettySize=auto;html=1;exitX=1;exitY=0.75;exitDx=0;exitDy=0;" edge="1" parent="1" source="dzJao00pFgIOvPmKJzuv-29" target="dzJao00pFgIOvPmKJzuv-34">
          <mxGeometry relative="1" as="geometry">
            <Array as="points">
              <mxPoint x="1060" y="458" />
            </Array>
          </mxGeometry>
        </mxCell>
        <mxCell id="dzJao00pFgIOvPmKJzuv-29" value="Admission" style="rounded=1;arcSize=10;whiteSpace=wrap;html=1;align=center;" vertex="1" parent="1">
          <mxGeometry x="960" y="388" width="100" height="40" as="geometry" />
        </mxCell>
        <mxCell id="dzJao00pFgIOvPmKJzuv-30" value="AdmissionID" style="ellipse;whiteSpace=wrap;html=1;align=center;fontStyle=4;" vertex="1" parent="1">
          <mxGeometry x="1010" y="258" width="100" height="40" as="geometry" />
        </mxCell>
        <mxCell id="dzJao00pFgIOvPmKJzuv-32" value="&lt;table style=&quot;border-collapse:&lt;br/&gt; collapse;width:73pt&quot; width=&quot;97&quot; cellspacing=&quot;0&quot; cellpadding=&quot;0&quot; border=&quot;0&quot;&gt;&lt;tbody&gt;&lt;tr style=&quot;height:15.0pt&quot; height=&quot;20&quot;&gt;&lt;br/&gt;  &lt;td style=&quot;height:15.0pt;width:73pt&quot; width=&quot;97&quot; class=&quot;xl66&quot; height=&quot;20&quot;&gt;Room&lt;br/&gt;  Number&lt;/td&gt;&lt;/tr&gt;&lt;/tbody&gt;&lt;/table&gt;" style="ellipse;whiteSpace=wrap;html=1;align=center;" vertex="1" parent="1">
          <mxGeometry x="1170" y="318" width="100" height="40" as="geometry" />
        </mxCell>
        <mxCell id="dzJao00pFgIOvPmKJzuv-33" value="&lt;table style=&quot;border-collapse:&lt;br/&gt; collapse;width:79pt&quot; width=&quot;105&quot; cellspacing=&quot;0&quot; cellpadding=&quot;0&quot; border=&quot;0&quot;&gt;&lt;tbody&gt;&lt;tr style=&quot;height:15.0pt&quot; height=&quot;20&quot;&gt;&lt;br/&gt;  &lt;td style=&quot;height:15.0pt;width:79pt&quot; width=&quot;105&quot; class=&quot;xl66&quot; height=&quot;20&quot;&gt;Admission&lt;br/&gt;  Type&lt;/td&gt;&lt;/tr&gt;&lt;/tbody&gt;&lt;/table&gt;" style="ellipse;whiteSpace=wrap;html=1;align=center;" vertex="1" parent="1">
          <mxGeometry x="1170" y="378" width="100" height="40" as="geometry" />
        </mxCell>
        <mxCell id="dzJao00pFgIOvPmKJzuv-34" value="&lt;table style=&quot;border-collapse:&lt;br/&gt; collapse;width:91pt&quot; width=&quot;121&quot; cellspacing=&quot;0&quot; cellpadding=&quot;0&quot; border=&quot;0&quot;&gt;&lt;tbody&gt;&lt;tr style=&quot;height:15.0pt&quot; height=&quot;20&quot;&gt;&lt;br/&gt;  &lt;td style=&quot;height:15.0pt;width:91pt&quot; width=&quot;121&quot; class=&quot;xl66&quot; height=&quot;20&quot;&gt;Medical&lt;br/&gt;  Condition&lt;/td&gt;&lt;/tr&gt;&lt;/tbody&gt;&lt;/table&gt;" style="ellipse;whiteSpace=wrap;html=1;align=center;" vertex="1" parent="1">
          <mxGeometry x="1160" y="438" width="100" height="40" as="geometry" />
        </mxCell>
        <mxCell id="dzJao00pFgIOvPmKJzuv-35" value="&lt;table style=&quot;border-collapse:&lt;br/&gt; collapse;width:91pt&quot; width=&quot;121&quot; cellspacing=&quot;0&quot; cellpadding=&quot;0&quot; border=&quot;0&quot;&gt;&lt;tbody&gt;&lt;tr style=&quot;height:15.0pt&quot; height=&quot;20&quot;&gt;&lt;br/&gt;  &lt;td style=&quot;height:15.0pt;width:91pt&quot; width=&quot;121&quot; class=&quot;xl67&quot; height=&quot;20&quot;&gt;Date of&lt;br/&gt;  Admission&lt;/td&gt;&lt;/tr&gt;&lt;/tbody&gt;&lt;/table&gt;" style="ellipse;whiteSpace=wrap;html=1;align=center;" vertex="1" parent="1">
          <mxGeometry x="1150" y="498" width="100" height="40" as="geometry" />
        </mxCell>
        <mxCell id="dzJao00pFgIOvPmKJzuv-36" value="&lt;table style=&quot;border-collapse:&lt;br/&gt; collapse;width:76pt&quot; width=&quot;101&quot; cellspacing=&quot;0&quot; cellpadding=&quot;0&quot; border=&quot;0&quot;&gt;&lt;tbody&gt;&lt;tr style=&quot;height:15.0pt&quot; height=&quot;20&quot;&gt;&lt;br/&gt;  &lt;td style=&quot;height:15.0pt;width:76pt&quot; width=&quot;101&quot; class=&quot;xl67&quot; height=&quot;20&quot;&gt;Discharge&lt;br/&gt;  Date&lt;/td&gt;&lt;/tr&gt;&lt;/tbody&gt;&lt;/table&gt;" style="ellipse;whiteSpace=wrap;html=1;align=center;" vertex="1" parent="1">
          <mxGeometry x="900" y="258" width="100" height="40" as="geometry" />
        </mxCell>
        <mxCell id="dzJao00pFgIOvPmKJzuv-37" value="&lt;table style=&quot;border-collapse:&lt;br/&gt; collapse;width:74pt&quot; width=&quot;98&quot; cellspacing=&quot;0&quot; cellpadding=&quot;0&quot; border=&quot;0&quot;&gt;&lt;tbody&gt;&lt;tr style=&quot;height:15.0pt&quot; height=&quot;20&quot;&gt;&lt;br/&gt;  &lt;td style=&quot;height:15.0pt;width:74pt&quot; width=&quot;98&quot; class=&quot;xl66&quot; height=&quot;20&quot;&gt;Billing&lt;br/&gt;  Amount&lt;/td&gt;&lt;/tr&gt;&lt;/tbody&gt;&lt;/table&gt;" style="ellipse;whiteSpace=wrap;html=1;align=center;" vertex="1" parent="1">
          <mxGeometry x="1130" y="258" width="100" height="40" as="geometry" />
        </mxCell>
        <mxCell id="dzJao00pFgIOvPmKJzuv-38" value="" style="shape=table;startSize=0;container=1;collapsible=1;childLayout=tableLayout;fixedRows=1;rowLines=0;fontStyle=0;align=center;resizeLast=1;strokeColor=none;fillColor=none;collapsible=0;" vertex="1" parent="1">
          <mxGeometry x="1020" y="518" width="90" height="20" as="geometry" />
        </mxCell>
        <mxCell id="dzJao00pFgIOvPmKJzuv-39" value="" style="shape=tableRow;horizontal=0;startSize=0;swimlaneHead=0;swimlaneBody=0;fillColor=none;collapsible=0;dropTarget=0;points=[[0,0.5],[1,0.5]];portConstraint=eastwest;top=0;left=0;right=0;bottom=0;" vertex="1" parent="dzJao00pFgIOvPmKJzuv-38">
          <mxGeometry width="90" height="20" as="geometry" />
        </mxCell>
        <mxCell id="dzJao00pFgIOvPmKJzuv-40" value="FK" style="shape=partialRectangle;connectable=0;fillColor=none;top=0;left=0;bottom=0;right=0;fontStyle=0;overflow=hidden;whiteSpace=wrap;html=1;" vertex="1" parent="dzJao00pFgIOvPmKJzuv-39">
          <mxGeometry width="30" height="20" as="geometry">
            <mxRectangle width="30" height="20" as="alternateBounds" />
          </mxGeometry>
        </mxCell>
        <mxCell id="dzJao00pFgIOvPmKJzuv-41" value="&lt;span style=&quot;font-kerning: normal;&quot; class=&quot;OYPEnA font-feature-liga-off font-feature-clig-off font-feature-calt-off text-decoration-none text-strikethrough-none&quot;&gt;&lt;font style=&quot;color: rgb(255, 255, 255);&quot;&gt;PatientID&amp;nbsp;&lt;/font&gt;&lt;/span&gt;" style="shape=partialRectangle;connectable=0;fillColor=none;top=0;left=0;bottom=0;right=0;align=left;spacingLeft=6;fontStyle=0;overflow=hidden;whiteSpace=wrap;html=1;" vertex="1" parent="dzJao00pFgIOvPmKJzuv-39">
          <mxGeometry x="30" width="60" height="20" as="geometry">
            <mxRectangle width="60" height="20" as="alternateBounds" />
          </mxGeometry>
        </mxCell>
        <mxCell id="dzJao00pFgIOvPmKJzuv-42" value="" style="shape=table;startSize=0;container=1;collapsible=1;childLayout=tableLayout;fixedRows=1;rowLines=0;fontStyle=0;align=center;resizeLast=1;strokeColor=none;fillColor=none;collapsible=0;" vertex="1" parent="1">
          <mxGeometry x="915" y="514" width="100" height="30" as="geometry" />
        </mxCell>
        <mxCell id="dzJao00pFgIOvPmKJzuv-43" value="" style="shape=tableRow;horizontal=0;startSize=0;swimlaneHead=0;swimlaneBody=0;fillColor=none;collapsible=0;dropTarget=0;points=[[0,0.5],[1,0.5]];portConstraint=eastwest;top=0;left=0;right=0;bottom=0;" vertex="1" parent="dzJao00pFgIOvPmKJzuv-42">
          <mxGeometry width="100" height="30" as="geometry" />
        </mxCell>
        <mxCell id="dzJao00pFgIOvPmKJzuv-44" value="FK" style="shape=partialRectangle;connectable=0;fillColor=none;top=0;left=0;bottom=0;right=0;fontStyle=0;overflow=hidden;whiteSpace=wrap;html=1;" vertex="1" parent="dzJao00pFgIOvPmKJzuv-43">
          <mxGeometry width="30" height="30" as="geometry">
            <mxRectangle width="30" height="30" as="alternateBounds" />
          </mxGeometry>
        </mxCell>
        <mxCell id="dzJao00pFgIOvPmKJzuv-45" value="HospitalID" style="shape=partialRectangle;connectable=0;fillColor=none;top=0;left=0;bottom=0;right=0;align=left;spacingLeft=6;fontStyle=0;overflow=hidden;whiteSpace=wrap;html=1;" vertex="1" parent="dzJao00pFgIOvPmKJzuv-43">
          <mxGeometry x="30" width="70" height="30" as="geometry">
            <mxRectangle width="70" height="30" as="alternateBounds" />
          </mxGeometry>
        </mxCell>
        <mxCell id="dzJao00pFgIOvPmKJzuv-50" value="" style="shape=table;startSize=0;container=1;collapsible=1;childLayout=tableLayout;fixedRows=1;rowLines=0;fontStyle=0;align=center;resizeLast=1;strokeColor=none;fillColor=none;collapsible=0;" vertex="1" parent="1">
          <mxGeometry x="790" y="263" width="100" height="30" as="geometry" />
        </mxCell>
        <mxCell id="dzJao00pFgIOvPmKJzuv-51" value="" style="shape=tableRow;horizontal=0;startSize=0;swimlaneHead=0;swimlaneBody=0;fillColor=none;collapsible=0;dropTarget=0;points=[[0,0.5],[1,0.5]];portConstraint=eastwest;top=0;left=0;right=0;bottom=0;" vertex="1" parent="dzJao00pFgIOvPmKJzuv-50">
          <mxGeometry width="100" height="30" as="geometry" />
        </mxCell>
        <mxCell id="dzJao00pFgIOvPmKJzuv-52" value="FK" style="shape=partialRectangle;connectable=0;fillColor=none;top=0;left=0;bottom=0;right=0;fontStyle=0;overflow=hidden;whiteSpace=wrap;html=1;" vertex="1" parent="dzJao00pFgIOvPmKJzuv-51">
          <mxGeometry width="30" height="30" as="geometry">
            <mxRectangle width="30" height="30" as="alternateBounds" />
          </mxGeometry>
        </mxCell>
        <mxCell id="dzJao00pFgIOvPmKJzuv-53" value="&lt;span style=&quot;text-align: center; text-decoration-line: underline;&quot;&gt;Doctor-ID&lt;/span&gt;" style="shape=partialRectangle;connectable=0;fillColor=none;top=0;left=0;bottom=0;right=0;align=left;spacingLeft=6;fontStyle=0;overflow=hidden;whiteSpace=wrap;html=1;" vertex="1" parent="dzJao00pFgIOvPmKJzuv-51">
          <mxGeometry x="30" width="70" height="30" as="geometry">
            <mxRectangle width="70" height="30" as="alternateBounds" />
          </mxGeometry>
        </mxCell>
        <mxCell id="dzJao00pFgIOvPmKJzuv-54" style="edgeStyle=orthogonalEdgeStyle;rounded=0;orthogonalLoop=1;jettySize=auto;html=1;exitX=0;exitY=0.25;exitDx=0;exitDy=0;entryX=0.55;entryY=0.933;entryDx=0;entryDy=0;entryPerimeter=0;" edge="1" parent="1" source="dzJao00pFgIOvPmKJzuv-29" target="dzJao00pFgIOvPmKJzuv-51">
          <mxGeometry relative="1" as="geometry">
            <Array as="points">
              <mxPoint x="920" y="398" />
              <mxPoint x="920" y="336" />
              <mxPoint x="840" y="336" />
              <mxPoint x="840" y="297" />
              <mxPoint x="845" y="297" />
            </Array>
          </mxGeometry>
        </mxCell>
        <mxCell id="dzJao00pFgIOvPmKJzuv-55" style="edgeStyle=orthogonalEdgeStyle;rounded=0;orthogonalLoop=1;jettySize=auto;html=1;exitX=0.25;exitY=0;exitDx=0;exitDy=0;entryX=0.44;entryY=0.9;entryDx=0;entryDy=0;entryPerimeter=0;" edge="1" parent="1" source="dzJao00pFgIOvPmKJzuv-29" target="dzJao00pFgIOvPmKJzuv-36">
          <mxGeometry relative="1" as="geometry">
            <Array as="points">
              <mxPoint x="944" y="388" />
            </Array>
          </mxGeometry>
        </mxCell>
        <mxCell id="dzJao00pFgIOvPmKJzuv-61" style="edgeStyle=orthogonalEdgeStyle;rounded=0;orthogonalLoop=1;jettySize=auto;html=1;exitX=0.75;exitY=1;exitDx=0;exitDy=0;entryX=0.5;entryY=0;entryDx=0;entryDy=0;" edge="1" parent="1" source="dzJao00pFgIOvPmKJzuv-29" target="dzJao00pFgIOvPmKJzuv-35">
          <mxGeometry relative="1" as="geometry">
            <Array as="points">
              <mxPoint x="1050" y="428" />
              <mxPoint x="1050" y="488" />
              <mxPoint x="1200" y="488" />
            </Array>
          </mxGeometry>
        </mxCell>
        <mxCell id="dzJao00pFgIOvPmKJzuv-83" style="edgeStyle=orthogonalEdgeStyle;rounded=0;orthogonalLoop=1;jettySize=auto;html=1;exitX=0.5;exitY=0;exitDx=0;exitDy=0;entryX=1;entryY=0.5;entryDx=0;entryDy=0;" edge="1" parent="1" source="dzJao00pFgIOvPmKJzuv-66" target="dzJao00pFgIOvPmKJzuv-67">
          <mxGeometry relative="1" as="geometry" />
        </mxCell>
        <mxCell id="dzJao00pFgIOvPmKJzuv-84" style="edgeStyle=orthogonalEdgeStyle;rounded=0;orthogonalLoop=1;jettySize=auto;html=1;exitX=0;exitY=0.25;exitDx=0;exitDy=0;entryX=1;entryY=0.5;entryDx=0;entryDy=0;" edge="1" parent="1" source="dzJao00pFgIOvPmKJzuv-66" target="dzJao00pFgIOvPmKJzuv-68">
          <mxGeometry relative="1" as="geometry">
            <Array as="points">
              <mxPoint x="74" y="561" />
            </Array>
          </mxGeometry>
        </mxCell>
        <mxCell id="dzJao00pFgIOvPmKJzuv-85" style="edgeStyle=orthogonalEdgeStyle;rounded=0;orthogonalLoop=1;jettySize=auto;html=1;exitX=0;exitY=0.5;exitDx=0;exitDy=0;entryX=1;entryY=0.5;entryDx=0;entryDy=0;" edge="1" parent="1" source="dzJao00pFgIOvPmKJzuv-66" target="dzJao00pFgIOvPmKJzuv-76">
          <mxGeometry relative="1" as="geometry" />
        </mxCell>
        <mxCell id="dzJao00pFgIOvPmKJzuv-86" style="edgeStyle=orthogonalEdgeStyle;rounded=0;orthogonalLoop=1;jettySize=auto;html=1;exitX=0;exitY=1;exitDx=0;exitDy=0;entryX=1;entryY=0.5;entryDx=0;entryDy=0;" edge="1" parent="1" source="dzJao00pFgIOvPmKJzuv-66" target="dzJao00pFgIOvPmKJzuv-80">
          <mxGeometry relative="1" as="geometry" />
        </mxCell>
        <mxCell id="dzJao00pFgIOvPmKJzuv-66" value="&lt;span style=&quot;font-weight: 700; font-kerning: normal;&quot; class=&quot;OYPEnA font-feature-liga-off font-feature-clig-off font-feature-calt-off text-decoration-none text-strikethrough-none&quot;&gt;&lt;font style=&quot;color: rgb(255, 255, 255);&quot;&gt;Admission-Medications&lt;/font&gt;&lt;/span&gt;" style="rounded=1;arcSize=10;whiteSpace=wrap;html=1;align=center;" vertex="1" parent="1">
          <mxGeometry x="74" y="562" width="100" height="40" as="geometry" />
        </mxCell>
        <mxCell id="dzJao00pFgIOvPmKJzuv-67" value="&lt;br&gt;&lt;table style=&quot;border-collapse:&lt;br/&gt; collapse;width:80pt&quot; width=&quot;107&quot; cellspacing=&quot;0&quot; cellpadding=&quot;0&quot; border=&quot;0&quot;&gt;&lt;tbody&gt;&lt;tr style=&quot;height:15.0pt&quot; height=&quot;20&quot;&gt;  &lt;td style=&quot;height:15.0pt;width:80pt&quot; width=&quot;107&quot; class=&quot;xl66&quot; height=&quot;20&quot;&gt;MedicationID&lt;/td&gt;&lt;/tr&gt;&lt;/tbody&gt;&lt;/table&gt;" style="ellipse;whiteSpace=wrap;html=1;align=center;fontStyle=4;" vertex="1" parent="1">
          <mxGeometry x="-74" y="496" width="104" height="35" as="geometry" />
        </mxCell>
        <mxCell id="dzJao00pFgIOvPmKJzuv-68" value="&lt;table style=&quot;border-collapse:&lt;br/&gt; collapse;width:65pt&quot; width=&quot;86&quot; cellspacing=&quot;0&quot; cellpadding=&quot;0&quot; border=&quot;0&quot;&gt;&lt;tbody&gt;&lt;tr style=&quot;height:15.0pt&quot; height=&quot;20&quot;&gt;&lt;br/&gt;  &lt;td style=&quot;height:15.0pt;width:65pt&quot; width=&quot;86&quot; class=&quot;xl66&quot; height=&quot;20&quot;&gt;Medication&lt;/td&gt;&lt;/tr&gt;&lt;/tbody&gt;&lt;/table&gt;" style="ellipse;whiteSpace=wrap;html=1;align=center;" vertex="1" parent="1">
          <mxGeometry x="-62" y="546" width="80" height="30" as="geometry" />
        </mxCell>
        <mxCell id="dzJao00pFgIOvPmKJzuv-69" style="edgeStyle=orthogonalEdgeStyle;rounded=0;orthogonalLoop=1;jettySize=auto;html=1;entryX=0.211;entryY=-0.05;entryDx=0;entryDy=0;entryPerimeter=0;" edge="1" parent="1" target="dzJao00pFgIOvPmKJzuv-39">
          <mxGeometry relative="1" as="geometry">
            <mxPoint x="990" y="406" as="sourcePoint" />
          </mxGeometry>
        </mxCell>
        <mxCell id="dzJao00pFgIOvPmKJzuv-70" style="edgeStyle=orthogonalEdgeStyle;rounded=0;orthogonalLoop=1;jettySize=auto;html=1;exitX=0.25;exitY=1;exitDx=0;exitDy=0;entryX=0.763;entryY=0.222;entryDx=0;entryDy=0;entryPerimeter=0;" edge="1" parent="1" source="dzJao00pFgIOvPmKJzuv-29" target="dzJao00pFgIOvPmKJzuv-43">
          <mxGeometry relative="1" as="geometry">
            <Array as="points">
              <mxPoint x="1020" y="428" />
              <mxPoint x="1020" y="515" />
              <mxPoint x="991" y="515" />
            </Array>
          </mxGeometry>
        </mxCell>
        <mxCell id="dzJao00pFgIOvPmKJzuv-75" value="" style="shape=table;startSize=0;container=1;collapsible=1;childLayout=tableLayout;fixedRows=1;rowLines=0;fontStyle=0;align=center;resizeLast=1;strokeColor=none;fillColor=none;collapsible=0;" vertex="1" parent="1">
          <mxGeometry x="-80" y="596" width="110" height="30" as="geometry" />
        </mxCell>
        <mxCell id="dzJao00pFgIOvPmKJzuv-76" value="" style="shape=tableRow;horizontal=0;startSize=0;swimlaneHead=0;swimlaneBody=0;fillColor=none;collapsible=0;dropTarget=0;points=[[0,0.5],[1,0.5]];portConstraint=eastwest;top=0;left=0;right=0;bottom=0;" vertex="1" parent="dzJao00pFgIOvPmKJzuv-75">
          <mxGeometry width="110" height="30" as="geometry" />
        </mxCell>
        <mxCell id="dzJao00pFgIOvPmKJzuv-77" value="FK" style="shape=partialRectangle;connectable=0;fillColor=none;top=0;left=0;bottom=0;right=0;fontStyle=0;overflow=hidden;whiteSpace=wrap;html=1;" vertex="1" parent="dzJao00pFgIOvPmKJzuv-76">
          <mxGeometry width="30" height="30" as="geometry">
            <mxRectangle width="30" height="30" as="alternateBounds" />
          </mxGeometry>
        </mxCell>
        <mxCell id="dzJao00pFgIOvPmKJzuv-78" value="&lt;span style=&quot;text-align: center; text-decoration-line: underline;&quot;&gt;AdmissionID&lt;/span&gt;" style="shape=partialRectangle;connectable=0;fillColor=none;top=0;left=0;bottom=0;right=0;align=left;spacingLeft=6;fontStyle=0;overflow=hidden;whiteSpace=wrap;html=1;" vertex="1" parent="dzJao00pFgIOvPmKJzuv-76">
          <mxGeometry x="30" width="80" height="30" as="geometry">
            <mxRectangle width="80" height="30" as="alternateBounds" />
          </mxGeometry>
        </mxCell>
        <mxCell id="dzJao00pFgIOvPmKJzuv-79" value="" style="shape=table;startSize=0;container=1;collapsible=1;childLayout=tableLayout;fixedRows=1;rowLines=0;fontStyle=0;align=center;resizeLast=1;strokeColor=none;fillColor=none;collapsible=0;" vertex="1" parent="1">
          <mxGeometry x="-67" y="636" width="90" height="20" as="geometry" />
        </mxCell>
        <mxCell id="dzJao00pFgIOvPmKJzuv-80" value="" style="shape=tableRow;horizontal=0;startSize=0;swimlaneHead=0;swimlaneBody=0;fillColor=none;collapsible=0;dropTarget=0;points=[[0,0.5],[1,0.5]];portConstraint=eastwest;top=0;left=0;right=0;bottom=0;" vertex="1" parent="dzJao00pFgIOvPmKJzuv-79">
          <mxGeometry width="90" height="20" as="geometry" />
        </mxCell>
        <mxCell id="dzJao00pFgIOvPmKJzuv-81" value="FK" style="shape=partialRectangle;connectable=0;fillColor=none;top=0;left=0;bottom=0;right=0;fontStyle=0;overflow=hidden;whiteSpace=wrap;html=1;" vertex="1" parent="dzJao00pFgIOvPmKJzuv-80">
          <mxGeometry width="30" height="20" as="geometry">
            <mxRectangle width="30" height="20" as="alternateBounds" />
          </mxGeometry>
        </mxCell>
        <mxCell id="dzJao00pFgIOvPmKJzuv-82" value="&lt;span style=&quot;font-kerning: normal;&quot; class=&quot;OYPEnA font-feature-liga-off font-feature-clig-off font-feature-calt-off text-decoration-none text-strikethrough-none&quot;&gt;&lt;font style=&quot;color: rgb(255, 255, 255);&quot;&gt;PatientID&amp;nbsp;&lt;/font&gt;&lt;/span&gt;" style="shape=partialRectangle;connectable=0;fillColor=none;top=0;left=0;bottom=0;right=0;align=left;spacingLeft=6;fontStyle=0;overflow=hidden;whiteSpace=wrap;html=1;" vertex="1" parent="dzJao00pFgIOvPmKJzuv-80">
          <mxGeometry x="30" width="60" height="20" as="geometry">
            <mxRectangle width="60" height="20" as="alternateBounds" />
          </mxGeometry>
        </mxCell>
        <mxCell id="dzJao00pFgIOvPmKJzuv-141" style="edgeStyle=orthogonalEdgeStyle;rounded=0;orthogonalLoop=1;jettySize=auto;html=1;exitX=0.25;exitY=0;exitDx=0;exitDy=0;entryX=0.5;entryY=0;entryDx=0;entryDy=0;" edge="1" parent="1" source="dzJao00pFgIOvPmKJzuv-87" target="dzJao00pFgIOvPmKJzuv-88">
          <mxGeometry relative="1" as="geometry">
            <Array as="points">
              <mxPoint x="40" y="736" />
              <mxPoint x="40" y="676" />
              <mxPoint x="-35" y="676" />
            </Array>
          </mxGeometry>
        </mxCell>
        <mxCell id="dzJao00pFgIOvPmKJzuv-142" style="edgeStyle=orthogonalEdgeStyle;rounded=0;orthogonalLoop=1;jettySize=auto;html=1;exitX=0;exitY=0.5;exitDx=0;exitDy=0;entryX=1;entryY=0.5;entryDx=0;entryDy=0;" edge="1" parent="1" source="dzJao00pFgIOvPmKJzuv-87" target="dzJao00pFgIOvPmKJzuv-89">
          <mxGeometry relative="1" as="geometry" />
        </mxCell>
        <mxCell id="dzJao00pFgIOvPmKJzuv-87" value="Admission-Testes" style="rounded=1;arcSize=10;whiteSpace=wrap;html=1;align=center;" vertex="1" parent="1">
          <mxGeometry x="82" y="736" width="100" height="40" as="geometry" />
        </mxCell>
        <mxCell id="dzJao00pFgIOvPmKJzuv-88" value="&lt;table style=&quot;border-collapse:&lt;br/&gt; collapse;width:48pt&quot; width=&quot;64&quot; cellspacing=&quot;0&quot; cellpadding=&quot;0&quot; border=&quot;0&quot;&gt;&lt;tbody&gt;&lt;tr style=&quot;height:15.0pt&quot; height=&quot;20&quot;&gt;&lt;br/&gt;  &lt;td style=&quot;height:15.0pt;width:48pt&quot; width=&quot;64&quot; class=&quot;xl66&quot; height=&quot;20&quot;&gt;Test-id&lt;/td&gt;&lt;/tr&gt;&lt;/tbody&gt;&lt;/table&gt;" style="ellipse;whiteSpace=wrap;html=1;align=center;fontStyle=4;" vertex="1" parent="1">
          <mxGeometry x="-85" y="696" width="100" height="40" as="geometry" />
        </mxCell>
        <mxCell id="dzJao00pFgIOvPmKJzuv-89" value="&lt;table style=&quot;border-collapse:&lt;br/&gt; collapse;width:64pt&quot; width=&quot;85&quot; cellspacing=&quot;0&quot; cellpadding=&quot;0&quot; border=&quot;0&quot;&gt;&lt;tbody&gt;&lt;tr style=&quot;height:15.0pt&quot; height=&quot;20&quot;&gt;&lt;br/&gt;  &lt;td style=&quot;height:15.0pt;width:64pt&quot; width=&quot;85&quot; class=&quot;xl66&quot; height=&quot;20&quot;&gt;Test&lt;br/&gt;  Results&lt;/td&gt;&lt;/tr&gt;&lt;/tbody&gt;&lt;/table&gt;" style="ellipse;whiteSpace=wrap;html=1;align=center;" vertex="1" parent="1">
          <mxGeometry x="-82" y="773" width="100" height="40" as="geometry" />
        </mxCell>
        <mxCell id="dzJao00pFgIOvPmKJzuv-90" value="" style="shape=table;startSize=0;container=1;collapsible=1;childLayout=tableLayout;fixedRows=1;rowLines=0;fontStyle=0;align=center;resizeLast=1;strokeColor=none;fillColor=none;collapsible=0;" vertex="1" parent="1">
          <mxGeometry x="82" y="796" width="110" height="30" as="geometry" />
        </mxCell>
        <mxCell id="dzJao00pFgIOvPmKJzuv-91" value="" style="shape=tableRow;horizontal=0;startSize=0;swimlaneHead=0;swimlaneBody=0;fillColor=none;collapsible=0;dropTarget=0;points=[[0,0.5],[1,0.5]];portConstraint=eastwest;top=0;left=0;right=0;bottom=0;" vertex="1" parent="dzJao00pFgIOvPmKJzuv-90">
          <mxGeometry width="110" height="30" as="geometry" />
        </mxCell>
        <mxCell id="dzJao00pFgIOvPmKJzuv-92" value="FK" style="shape=partialRectangle;connectable=0;fillColor=none;top=0;left=0;bottom=0;right=0;fontStyle=0;overflow=hidden;whiteSpace=wrap;html=1;" vertex="1" parent="dzJao00pFgIOvPmKJzuv-91">
          <mxGeometry width="30" height="30" as="geometry">
            <mxRectangle width="30" height="30" as="alternateBounds" />
          </mxGeometry>
        </mxCell>
        <mxCell id="dzJao00pFgIOvPmKJzuv-93" value="&lt;span style=&quot;text-align: center; text-decoration-line: underline;&quot;&gt;AdmissionID&lt;/span&gt;" style="shape=partialRectangle;connectable=0;fillColor=none;top=0;left=0;bottom=0;right=0;align=left;spacingLeft=6;fontStyle=0;overflow=hidden;whiteSpace=wrap;html=1;" vertex="1" parent="dzJao00pFgIOvPmKJzuv-91">
          <mxGeometry x="30" width="80" height="30" as="geometry">
            <mxRectangle width="80" height="30" as="alternateBounds" />
          </mxGeometry>
        </mxCell>
        <mxCell id="dzJao00pFgIOvPmKJzuv-96" style="edgeStyle=orthogonalEdgeStyle;rounded=0;orthogonalLoop=1;jettySize=auto;html=1;exitX=0.5;exitY=1;exitDx=0;exitDy=0;entryX=0.509;entryY=0.133;entryDx=0;entryDy=0;entryPerimeter=0;" edge="1" parent="1" source="dzJao00pFgIOvPmKJzuv-87" target="dzJao00pFgIOvPmKJzuv-91">
          <mxGeometry relative="1" as="geometry" />
        </mxCell>
        <mxCell id="dzJao00pFgIOvPmKJzuv-98" style="edgeStyle=orthogonalEdgeStyle;rounded=0;orthogonalLoop=1;jettySize=auto;html=1;exitX=0;exitY=0.5;exitDx=0;exitDy=0;" edge="1" parent="1" source="dzJao00pFgIOvPmKJzuv-97" target="dzJao00pFgIOvPmKJzuv-1">
          <mxGeometry relative="1" as="geometry" />
        </mxCell>
        <mxCell id="dzJao00pFgIOvPmKJzuv-99" style="edgeStyle=orthogonalEdgeStyle;rounded=0;orthogonalLoop=1;jettySize=auto;html=1;exitX=1;exitY=0.5;exitDx=0;exitDy=0;entryX=0;entryY=0.5;entryDx=0;entryDy=0;" edge="1" parent="1" source="dzJao00pFgIOvPmKJzuv-97" target="dzJao00pFgIOvPmKJzuv-29">
          <mxGeometry relative="1" as="geometry">
            <Array as="points">
              <mxPoint x="650" y="244" />
              <mxPoint x="650" y="408" />
            </Array>
          </mxGeometry>
        </mxCell>
        <mxCell id="dzJao00pFgIOvPmKJzuv-97" value="Has" style="shape=rhombus;perimeter=rhombusPerimeter;whiteSpace=wrap;html=1;align=center;" vertex="1" parent="1">
          <mxGeometry x="400" y="213.5" width="120" height="60" as="geometry" />
        </mxCell>
        <mxCell id="dzJao00pFgIOvPmKJzuv-117" value="1" style="text;strokeColor=none;fillColor=none;spacingLeft=4;spacingRight=4;overflow=hidden;rotatable=0;points=[[0,0.5],[1,0.5]];portConstraint=eastwest;fontSize=12;whiteSpace=wrap;html=1;" vertex="1" parent="1">
          <mxGeometry x="380" y="213.5" width="40" height="30" as="geometry" />
        </mxCell>
        <mxCell id="dzJao00pFgIOvPmKJzuv-118" value="M" style="text;strokeColor=none;fillColor=none;spacingLeft=4;spacingRight=4;overflow=hidden;rotatable=0;points=[[0,0.5],[1,0.5]];portConstraint=eastwest;fontSize=12;whiteSpace=wrap;html=1;" vertex="1" parent="1">
          <mxGeometry x="520" y="213.5" width="40" height="30" as="geometry" />
        </mxCell>
        <mxCell id="dzJao00pFgIOvPmKJzuv-121" style="edgeStyle=orthogonalEdgeStyle;rounded=0;orthogonalLoop=1;jettySize=auto;html=1;exitX=0;exitY=0.5;exitDx=0;exitDy=0;entryX=0.5;entryY=1;entryDx=0;entryDy=0;" edge="1" parent="1" source="dzJao00pFgIOvPmKJzuv-120" target="dzJao00pFgIOvPmKJzuv-14">
          <mxGeometry relative="1" as="geometry">
            <Array as="points">
              <mxPoint x="940" y="196" />
              <mxPoint x="940" y="155" />
            </Array>
          </mxGeometry>
        </mxCell>
        <mxCell id="dzJao00pFgIOvPmKJzuv-122" style="edgeStyle=orthogonalEdgeStyle;rounded=0;orthogonalLoop=1;jettySize=auto;html=1;exitX=0.5;exitY=1;exitDx=0;exitDy=0;" edge="1" parent="1" source="dzJao00pFgIOvPmKJzuv-120">
          <mxGeometry relative="1" as="geometry">
            <mxPoint x="1000" y="428" as="targetPoint" />
            <Array as="points">
              <mxPoint x="1290" y="696" />
              <mxPoint x="900" y="696" />
              <mxPoint x="900" y="496" />
              <mxPoint x="980" y="496" />
              <mxPoint x="980" y="428" />
            </Array>
          </mxGeometry>
        </mxCell>
        <mxCell id="dzJao00pFgIOvPmKJzuv-120" value="&lt;strong style=&quot;color: rgb(248, 250, 255); font-family: DeepSeek-CJK-patch, Inter, system-ui, -apple-system, BlinkMacSystemFont, &amp;quot;Segoe UI&amp;quot;, Roboto, &amp;quot;Noto Sans&amp;quot;, Ubuntu, Cantarell, &amp;quot;Helvetica Neue&amp;quot;, Oxygen, &amp;quot;Open Sans&amp;quot;, sans-serif; font-size: 16.002px; text-align: left; background-color: rgb(41, 42, 45);&quot;&gt;Occurs&amp;nbsp;&lt;/strong&gt;" style="shape=rhombus;perimeter=rhombusPerimeter;whiteSpace=wrap;html=1;align=center;" vertex="1" parent="1">
          <mxGeometry x="1230" y="163.5" width="120" height="60" as="geometry" />
        </mxCell>
        <mxCell id="dzJao00pFgIOvPmKJzuv-123" value="1" style="text;strokeColor=none;fillColor=none;spacingLeft=4;spacingRight=4;overflow=hidden;rotatable=0;points=[[0,0.5],[1,0.5]];portConstraint=eastwest;fontSize=12;whiteSpace=wrap;html=1;" vertex="1" parent="1">
          <mxGeometry x="1200" y="168.5" width="40" height="30" as="geometry" />
        </mxCell>
        <mxCell id="dzJao00pFgIOvPmKJzuv-124" value="M" style="text;strokeColor=none;fillColor=none;spacingLeft=4;spacingRight=4;overflow=hidden;rotatable=0;points=[[0,0.5],[1,0.5]];portConstraint=eastwest;fontSize=12;whiteSpace=wrap;html=1;" vertex="1" parent="1">
          <mxGeometry x="1300" y="213.5" width="40" height="30" as="geometry" />
        </mxCell>
        <mxCell id="dzJao00pFgIOvPmKJzuv-126" style="edgeStyle=orthogonalEdgeStyle;rounded=0;orthogonalLoop=1;jettySize=auto;html=1;entryX=1;entryY=0.5;entryDx=0;entryDy=0;" edge="1" parent="1" source="dzJao00pFgIOvPmKJzuv-125" target="dzJao00pFgIOvPmKJzuv-19">
          <mxGeometry relative="1" as="geometry">
            <Array as="points">
              <mxPoint x="164" y="376" />
            </Array>
          </mxGeometry>
        </mxCell>
        <mxCell id="dzJao00pFgIOvPmKJzuv-127" style="edgeStyle=orthogonalEdgeStyle;rounded=0;orthogonalLoop=1;jettySize=auto;html=1;exitX=1;exitY=0.5;exitDx=0;exitDy=0;entryX=0;entryY=0.75;entryDx=0;entryDy=0;" edge="1" parent="1" source="dzJao00pFgIOvPmKJzuv-125" target="dzJao00pFgIOvPmKJzuv-29">
          <mxGeometry relative="1" as="geometry">
            <Array as="points">
              <mxPoint x="640" y="376" />
              <mxPoint x="640" y="418" />
            </Array>
          </mxGeometry>
        </mxCell>
        <mxCell id="dzJao00pFgIOvPmKJzuv-125" value="&lt;strong style=&quot;color: rgb(248, 250, 255); font-family: DeepSeek-CJK-patch, Inter, system-ui, -apple-system, BlinkMacSystemFont, &amp;quot;Segoe UI&amp;quot;, Roboto, &amp;quot;Noto Sans&amp;quot;, Ubuntu, Cantarell, &amp;quot;Helvetica Neue&amp;quot;, Oxygen, &amp;quot;Open Sans&amp;quot;, sans-serif; font-size: 16.002px; text-align: left; background-color: rgb(41, 42, 45);&quot;&gt;Treated&amp;nbsp;&lt;/strong&gt;" style="shape=rhombus;perimeter=rhombusPerimeter;whiteSpace=wrap;html=1;align=center;" vertex="1" parent="1">
          <mxGeometry x="400" y="346" width="120" height="60" as="geometry" />
        </mxCell>
        <mxCell id="dzJao00pFgIOvPmKJzuv-128" value="1" style="text;strokeColor=none;fillColor=none;spacingLeft=4;spacingRight=4;overflow=hidden;rotatable=0;points=[[0,0.5],[1,0.5]];portConstraint=eastwest;fontSize=12;whiteSpace=wrap;html=1;" vertex="1" parent="1">
          <mxGeometry x="390" y="351" width="40" height="30" as="geometry" />
        </mxCell>
        <mxCell id="dzJao00pFgIOvPmKJzuv-130" value="M" style="text;strokeColor=none;fillColor=none;spacingLeft=4;spacingRight=4;overflow=hidden;rotatable=0;points=[[0,0.5],[1,0.5]];portConstraint=eastwest;fontSize=12;whiteSpace=wrap;html=1;" vertex="1" parent="1">
          <mxGeometry x="520" y="351" width="40" height="30" as="geometry" />
        </mxCell>
        <mxCell id="dzJao00pFgIOvPmKJzuv-132" style="edgeStyle=orthogonalEdgeStyle;rounded=0;orthogonalLoop=1;jettySize=auto;html=1;exitX=0;exitY=0.5;exitDx=0;exitDy=0;entryX=1;entryY=0.5;entryDx=0;entryDy=0;" edge="1" parent="1" source="dzJao00pFgIOvPmKJzuv-131" target="dzJao00pFgIOvPmKJzuv-66">
          <mxGeometry relative="1" as="geometry">
            <Array as="points">
              <mxPoint x="200" y="501" />
              <mxPoint x="200" y="582" />
            </Array>
          </mxGeometry>
        </mxCell>
        <mxCell id="dzJao00pFgIOvPmKJzuv-133" style="edgeStyle=orthogonalEdgeStyle;rounded=0;orthogonalLoop=1;jettySize=auto;html=1;exitX=1;exitY=0.5;exitDx=0;exitDy=0;entryX=0;entryY=0.75;entryDx=0;entryDy=0;" edge="1" parent="1" source="dzJao00pFgIOvPmKJzuv-131" target="dzJao00pFgIOvPmKJzuv-29">
          <mxGeometry relative="1" as="geometry">
            <Array as="points">
              <mxPoint x="640" y="501" />
              <mxPoint x="640" y="426" />
              <mxPoint x="960" y="426" />
            </Array>
          </mxGeometry>
        </mxCell>
        <mxCell id="dzJao00pFgIOvPmKJzuv-131" value="&lt;strong style=&quot;color: rgb(248, 250, 255); font-family: DeepSeek-CJK-patch, Inter, system-ui, -apple-system, BlinkMacSystemFont, &amp;quot;Segoe UI&amp;quot;, Roboto, &amp;quot;Noto Sans&amp;quot;, Ubuntu, Cantarell, &amp;quot;Helvetica Neue&amp;quot;, Oxygen, &amp;quot;Open Sans&amp;quot;, sans-serif; font-size: 16.002px; text-align: left; background-color: rgb(41, 42, 45);&quot;&gt;Includes&amp;nbsp;&lt;/strong&gt;" style="shape=rhombus;perimeter=rhombusPerimeter;whiteSpace=wrap;html=1;align=center;" vertex="1" parent="1">
          <mxGeometry x="400" y="471" width="120" height="60" as="geometry" />
        </mxCell>
        <mxCell id="dzJao00pFgIOvPmKJzuv-134" value="M" style="text;strokeColor=none;fillColor=none;spacingLeft=4;spacingRight=4;overflow=hidden;rotatable=0;points=[[0,0.5],[1,0.5]];portConstraint=eastwest;fontSize=12;whiteSpace=wrap;html=1;" vertex="1" parent="1">
          <mxGeometry x="380" y="478" width="40" height="30" as="geometry" />
        </mxCell>
        <mxCell id="dzJao00pFgIOvPmKJzuv-135" value="M" style="text;strokeColor=none;fillColor=none;spacingLeft=4;spacingRight=4;overflow=hidden;rotatable=0;points=[[0,0.5],[1,0.5]];portConstraint=eastwest;fontSize=12;whiteSpace=wrap;html=1;" vertex="1" parent="1">
          <mxGeometry x="520" y="478" width="40" height="30" as="geometry" />
        </mxCell>
        <mxCell id="dzJao00pFgIOvPmKJzuv-140" style="edgeStyle=orthogonalEdgeStyle;rounded=0;orthogonalLoop=1;jettySize=auto;html=1;exitX=1;exitY=0.5;exitDx=0;exitDy=0;entryX=0;entryY=1;entryDx=0;entryDy=0;" edge="1" parent="1" source="dzJao00pFgIOvPmKJzuv-138" target="dzJao00pFgIOvPmKJzuv-29">
          <mxGeometry relative="1" as="geometry">
            <Array as="points">
              <mxPoint x="650" y="736" />
              <mxPoint x="650" y="436" />
              <mxPoint x="960" y="436" />
            </Array>
          </mxGeometry>
        </mxCell>
        <mxCell id="dzJao00pFgIOvPmKJzuv-143" style="edgeStyle=orthogonalEdgeStyle;rounded=0;orthogonalLoop=1;jettySize=auto;html=1;exitX=0;exitY=0.5;exitDx=0;exitDy=0;" edge="1" parent="1" source="dzJao00pFgIOvPmKJzuv-138">
          <mxGeometry relative="1" as="geometry">
            <mxPoint x="180" y="766" as="targetPoint" />
            <Array as="points">
              <mxPoint x="200" y="736" />
              <mxPoint x="200" y="767" />
              <mxPoint x="190" y="767" />
            </Array>
          </mxGeometry>
        </mxCell>
        <mxCell id="dzJao00pFgIOvPmKJzuv-138" value="&lt;strong style=&quot;color: rgb(248, 250, 255); font-family: DeepSeek-CJK-patch, Inter, system-ui, -apple-system, BlinkMacSystemFont, &amp;quot;Segoe UI&amp;quot;, Roboto, &amp;quot;Noto Sans&amp;quot;, Ubuntu, Cantarell, &amp;quot;Helvetica Neue&amp;quot;, Oxygen, &amp;quot;Open Sans&amp;quot;, sans-serif; font-size: 16.002px; text-align: left; background-color: rgb(41, 42, 45);&quot;&gt;Contains&amp;nbsp;&lt;/strong&gt;" style="shape=rhombus;perimeter=rhombusPerimeter;whiteSpace=wrap;html=1;align=center;" vertex="1" parent="1">
          <mxGeometry x="400" y="706" width="120" height="60" as="geometry" />
        </mxCell>
        <mxCell id="dzJao00pFgIOvPmKJzuv-144" value="M" style="text;strokeColor=none;fillColor=none;spacingLeft=4;spacingRight=4;overflow=hidden;rotatable=0;points=[[0,0.5],[1,0.5]];portConstraint=eastwest;fontSize=12;whiteSpace=wrap;html=1;" vertex="1" parent="1">
          <mxGeometry x="380" y="706" width="40" height="30" as="geometry" />
        </mxCell>
        <mxCell id="dzJao00pFgIOvPmKJzuv-145" value="M" style="text;strokeColor=none;fillColor=none;spacingLeft=4;spacingRight=4;overflow=hidden;rotatable=0;points=[[0,0.5],[1,0.5]];portConstraint=eastwest;fontSize=12;whiteSpace=wrap;html=1;" vertex="1" parent="1">
          <mxGeometry x="510" y="711" width="40" height="30" as="geometry" />
        </mxCell>
        <mxCell id="dzJao00pFgIOvPmKJzuv-147" style="edgeStyle=orthogonalEdgeStyle;rounded=0;orthogonalLoop=1;jettySize=auto;html=1;exitX=0.5;exitY=0;exitDx=0;exitDy=0;entryX=0.25;entryY=1;entryDx=0;entryDy=0;" edge="1" parent="1" source="dzJao00pFgIOvPmKJzuv-146" target="dzJao00pFgIOvPmKJzuv-1">
          <mxGeometry relative="1" as="geometry">
            <Array as="points">
              <mxPoint x="-390" y="406" />
              <mxPoint x="-390" y="226" />
              <mxPoint x="69" y="226" />
            </Array>
          </mxGeometry>
        </mxCell>
        <mxCell id="dzJao00pFgIOvPmKJzuv-148" style="edgeStyle=orthogonalEdgeStyle;rounded=0;orthogonalLoop=1;jettySize=auto;html=1;exitX=0.5;exitY=1;exitDx=0;exitDy=0;entryX=0.25;entryY=0;entryDx=0;entryDy=0;" edge="1" parent="1" source="dzJao00pFgIOvPmKJzuv-146" target="dzJao00pFgIOvPmKJzuv-87">
          <mxGeometry relative="1" as="geometry">
            <Array as="points">
              <mxPoint x="-380" y="666" />
              <mxPoint x="107" y="666" />
            </Array>
          </mxGeometry>
        </mxCell>
        <mxCell id="dzJao00pFgIOvPmKJzuv-146" value="&lt;strong style=&quot;color: rgb(248, 250, 255); font-family: DeepSeek-CJK-patch, Inter, system-ui, -apple-system, BlinkMacSystemFont, &amp;quot;Segoe UI&amp;quot;, Roboto, &amp;quot;Noto Sans&amp;quot;, Ubuntu, Cantarell, &amp;quot;Helvetica Neue&amp;quot;, Oxygen, &amp;quot;Open Sans&amp;quot;, sans-serif; font-size: 16.002px; text-align: left; background-color: rgb(41, 42, 45);&quot;&gt;Tested&amp;nbsp;&lt;/strong&gt;" style="shape=rhombus;perimeter=rhombusPerimeter;whiteSpace=wrap;html=1;align=center;" vertex="1" parent="1">
          <mxGeometry x="-440" y="406" width="120" height="60" as="geometry" />
        </mxCell>
        <mxCell id="dzJao00pFgIOvPmKJzuv-149" value="M" style="text;strokeColor=none;fillColor=none;spacingLeft=4;spacingRight=4;overflow=hidden;rotatable=0;points=[[0,0.5],[1,0.5]];portConstraint=eastwest;fontSize=12;whiteSpace=wrap;html=1;" vertex="1" parent="1">
          <mxGeometry x="-433" y="388" width="40" height="30" as="geometry" />
        </mxCell>
        <mxCell id="dzJao00pFgIOvPmKJzuv-150" value="M" style="text;strokeColor=none;fillColor=none;spacingLeft=4;spacingRight=4;overflow=hidden;rotatable=0;points=[[0,0.5],[1,0.5]];portConstraint=eastwest;fontSize=12;whiteSpace=wrap;html=1;" vertex="1" parent="1">
          <mxGeometry x="-420" y="466" width="40" height="30" as="geometry" />
        </mxCell>
        <mxCell id="dzJao00pFgIOvPmKJzuv-153" style="edgeStyle=orthogonalEdgeStyle;rounded=0;orthogonalLoop=1;jettySize=auto;html=1;exitX=0.5;exitY=0;exitDx=0;exitDy=0;" edge="1" parent="1" source="dzJao00pFgIOvPmKJzuv-152">
          <mxGeometry relative="1" as="geometry">
            <mxPoint x="80" y="196" as="targetPoint" />
            <Array as="points">
              <mxPoint x="-230" y="256" />
              <mxPoint x="81" y="256" />
              <mxPoint x="81" y="196" />
            </Array>
          </mxGeometry>
        </mxCell>
        <mxCell id="dzJao00pFgIOvPmKJzuv-154" style="edgeStyle=orthogonalEdgeStyle;rounded=0;orthogonalLoop=1;jettySize=auto;html=1;exitX=0.5;exitY=1;exitDx=0;exitDy=0;entryX=0.75;entryY=0;entryDx=0;entryDy=0;" edge="1" parent="1" source="dzJao00pFgIOvPmKJzuv-152" target="dzJao00pFgIOvPmKJzuv-66">
          <mxGeometry relative="1" as="geometry">
            <Array as="points">
              <mxPoint x="-230" y="496" />
              <mxPoint x="-120" y="496" />
              <mxPoint x="-120" y="456" />
              <mxPoint x="149" y="456" />
            </Array>
          </mxGeometry>
        </mxCell>
        <mxCell id="dzJao00pFgIOvPmKJzuv-152" value="&lt;strong style=&quot;color: rgb(248, 250, 255); font-family: DeepSeek-CJK-patch, Inter, system-ui, -apple-system, BlinkMacSystemFont, &amp;quot;Segoe UI&amp;quot;, Roboto, &amp;quot;Noto Sans&amp;quot;, Ubuntu, Cantarell, &amp;quot;Helvetica Neue&amp;quot;, Oxygen, &amp;quot;Open Sans&amp;quot;, sans-serif; font-size: 16.002px; text-align: left; background-color: rgb(41, 42, 45);&quot;&gt;Prescribed&lt;/strong&gt;" style="shape=rhombus;perimeter=rhombusPerimeter;whiteSpace=wrap;html=1;align=center;" vertex="1" parent="1">
          <mxGeometry x="-290" y="406" width="120" height="60" as="geometry" />
        </mxCell>
        <mxCell id="dzJao00pFgIOvPmKJzuv-155" value="M" style="text;strokeColor=none;fillColor=none;spacingLeft=4;spacingRight=4;overflow=hidden;rotatable=0;points=[[0,0.5],[1,0.5]];portConstraint=eastwest;fontSize=12;whiteSpace=wrap;html=1;" vertex="1" parent="1">
          <mxGeometry x="-220" y="388" width="40" height="30" as="geometry" />
        </mxCell>
        <mxCell id="dzJao00pFgIOvPmKJzuv-156" value="M" style="text;strokeColor=none;fillColor=none;spacingLeft=4;spacingRight=4;overflow=hidden;rotatable=0;points=[[0,0.5],[1,0.5]];portConstraint=eastwest;fontSize=12;whiteSpace=wrap;html=1;" vertex="1" parent="1">
          <mxGeometry x="-270" y="466" width="40" height="30" as="geometry" />
        </mxCell>
        <mxCell id="dzJao00pFgIOvPmKJzuv-161" value="" style="shape=tableRow;horizontal=0;startSize=0;swimlaneHead=0;swimlaneBody=0;fillColor=none;collapsible=0;dropTarget=0;points=[[0,0.5],[1,0.5]];portConstraint=eastwest;top=0;left=0;right=0;bottom=0;" vertex="1" parent="1">
          <mxGeometry x="1090" y="120" width="90" height="20" as="geometry" />
        </mxCell>
        <mxCell id="dzJao00pFgIOvPmKJzuv-162" value="FK" style="shape=partialRectangle;connectable=0;fillColor=none;top=0;left=0;bottom=0;right=0;fontStyle=0;overflow=hidden;whiteSpace=wrap;html=1;" vertex="1" parent="dzJao00pFgIOvPmKJzuv-161">
          <mxGeometry width="30" height="20" as="geometry">
            <mxRectangle width="30" height="20" as="alternateBounds" />
          </mxGeometry>
        </mxCell>
        <mxCell id="dzJao00pFgIOvPmKJzuv-163" value="&lt;span style=&quot;font-kerning: normal;&quot; class=&quot;OYPEnA font-feature-liga-off font-feature-clig-off font-feature-calt-off text-decoration-none text-strikethrough-none&quot;&gt;&lt;font style=&quot;color: rgb(255, 255, 255);&quot;&gt;PatientID&amp;nbsp;&lt;/font&gt;&lt;/span&gt;" style="shape=partialRectangle;connectable=0;fillColor=none;top=0;left=0;bottom=0;right=0;align=left;spacingLeft=6;fontStyle=0;overflow=hidden;whiteSpace=wrap;html=1;" vertex="1" parent="dzJao00pFgIOvPmKJzuv-161">
          <mxGeometry x="30" width="60" height="20" as="geometry">
            <mxRectangle width="60" height="20" as="alternateBounds" />
          </mxGeometry>
        </mxCell>
        <mxCell id="dzJao00pFgIOvPmKJzuv-165" style="edgeStyle=orthogonalEdgeStyle;rounded=0;orthogonalLoop=1;jettySize=auto;html=1;exitX=1;exitY=0.25;exitDx=0;exitDy=0;" edge="1" parent="1" source="dzJao00pFgIOvPmKJzuv-14">
          <mxGeometry relative="1" as="geometry">
            <mxPoint x="1100" y="130" as="targetPoint" />
          </mxGeometry>
        </mxCell>
        <mxCell id="dzJao00pFgIOvPmKJzuv-167" style="edgeStyle=orthogonalEdgeStyle;rounded=0;orthogonalLoop=1;jettySize=auto;html=1;exitX=0;exitY=0.5;exitDx=0;exitDy=0;entryX=1;entryY=0.75;entryDx=0;entryDy=0;" edge="1" parent="1" source="dzJao00pFgIOvPmKJzuv-166" target="dzJao00pFgIOvPmKJzuv-1">
          <mxGeometry relative="1" as="geometry">
            <Array as="points">
              <mxPoint x="400" y="125" />
              <mxPoint x="400" y="176" />
              <mxPoint x="302" y="176" />
              <mxPoint x="302" y="179" />
            </Array>
          </mxGeometry>
        </mxCell>
        <mxCell id="dzJao00pFgIOvPmKJzuv-168" style="edgeStyle=orthogonalEdgeStyle;rounded=0;orthogonalLoop=1;jettySize=auto;html=1;exitX=1;exitY=0.5;exitDx=0;exitDy=0;entryX=0.25;entryY=1;entryDx=0;entryDy=0;" edge="1" parent="1" source="dzJao00pFgIOvPmKJzuv-166" target="dzJao00pFgIOvPmKJzuv-14">
          <mxGeometry relative="1" as="geometry">
            <Array as="points">
              <mxPoint x="640" y="125" />
              <mxPoint x="640" y="175" />
              <mxPoint x="905" y="175" />
            </Array>
          </mxGeometry>
        </mxCell>
        <mxCell id="dzJao00pFgIOvPmKJzuv-166" value="&lt;span style=&quot;color: rgb(248, 250, 255); font-family: DeepSeek-CJK-patch, Inter, system-ui, -apple-system, BlinkMacSystemFont, &amp;quot;Segoe UI&amp;quot;, Roboto, &amp;quot;Noto Sans&amp;quot;, Ubuntu, Cantarell, &amp;quot;Helvetica Neue&amp;quot;, Oxygen, &amp;quot;Open Sans&amp;quot;, sans-serif; font-size: 16.002px; text-align: left; background-color: rgb(41, 42, 45);&quot;&gt;visit&amp;nbsp;&lt;/span&gt;" style="shape=rhombus;perimeter=rhombusPerimeter;whiteSpace=wrap;html=1;align=center;" vertex="1" parent="1">
          <mxGeometry x="460" y="95" width="120" height="60" as="geometry" />
        </mxCell>
        <mxCell id="dzJao00pFgIOvPmKJzuv-170" style="edgeStyle=orthogonalEdgeStyle;rounded=0;orthogonalLoop=1;jettySize=auto;html=1;exitX=1;exitY=0.5;exitDx=0;exitDy=0;entryX=1;entryY=0.5;entryDx=0;entryDy=0;" edge="1" parent="1" source="dzJao00pFgIOvPmKJzuv-169" target="dzJao00pFgIOvPmKJzuv-14">
          <mxGeometry relative="1" as="geometry">
            <Array as="points">
              <mxPoint x="1360" y="816" />
              <mxPoint x="1360" y="146" />
              <mxPoint x="980" y="146" />
            </Array>
          </mxGeometry>
        </mxCell>
        <mxCell id="dzJao00pFgIOvPmKJzuv-171" style="edgeStyle=orthogonalEdgeStyle;rounded=0;orthogonalLoop=1;jettySize=auto;html=1;exitX=0;exitY=0.5;exitDx=0;exitDy=0;entryX=1;entryY=0.25;entryDx=0;entryDy=0;" edge="1" parent="1" source="dzJao00pFgIOvPmKJzuv-169" target="dzJao00pFgIOvPmKJzuv-19">
          <mxGeometry relative="1" as="geometry">
            <Array as="points">
              <mxPoint x="770" y="816" />
              <mxPoint x="280" y="816" />
              <mxPoint x="280" y="356" />
            </Array>
          </mxGeometry>
        </mxCell>
        <mxCell id="dzJao00pFgIOvPmKJzuv-169" value="Work" style="shape=rhombus;perimeter=rhombusPerimeter;whiteSpace=wrap;html=1;align=center;" vertex="1" parent="1">
          <mxGeometry x="770" y="786" width="120" height="60" as="geometry" />
        </mxCell>
      </root>
    </mxGraphModel>
  </diagram>
</mxfile>
